<svg xmlns="http://www.w3.org/2000/svg" width="32" height="32" version="1"><path fill="#fff" fill-rule="evenodd" d="M16 0C7.17 0 0 7.16 0 16c0 7.06 4.6 13.06 10.95 15.18.8.14 1.05-.33 1.05-.76 0-.38 0-1.44 0-2.77-4.45.96-5.37-2.1-5.37-2.1-.73-1.86-1.78-2.35-1.78-2.35-1.45-1 .1-.97.1-.97 1.62.1 2.46 1.65 2.46 1.65 1.44 2.44 3.76 1.73 4.67 1.33.14-1.03.56-1.73 1-2.13-3.54-.4-7.27-1.78-7.27-7.9 0-1.76.62-3.18 1.64-4.3-.16-.4-.7-2.03.16-4.24 0 0 1.35-.43 4.4 1.65 1.28-.36 2.65-.54 4-.54 1.36 0 2.73.18 4 .53 3.06-2.06 4.4-1.64 4.4-1.64.88 2.2.33 3.83.17 4.24 1.02 1.12 1.64 2.54 1.64 4.3 0 6.14-3.73 7.5-7.3 7.88.58.5 1.1 1.46 1.1 2.95 0 2 0 3.9 0 4.43 0 .43.26.9 1.07.74C27.42 29.05 32 23.07 32 16c0-8.84-7.16-16-16-16z" clip-rule="evenodd"/></svg>